<svg width="75" height="75" viewBox="0 0 75 75" fill="none" xmlns="http://www.w3.org/2000/svg">
<path fill-rule="evenodd" clip-rule="evenodd" d="M59.3809 12.5793C61.0996 12.5887 62.4903 13.9825 62.4903 15.7012L62.4996 31.2481C62.5028 32.9731 61.1028 34.3762 59.3778 34.3762H59.3746C57.6496 34.3762 56.2528 32.9762 56.2496 31.2543L56.2434 23.1762L45.959 33.4606C45.3496 34.07 44.5496 34.3762 43.7496 34.3762C42.9528 34.3762 42.1528 34.07 41.5403 33.4606C40.3215 32.2387 40.3215 30.2606 41.5403 29.0418L51.7903 18.7918L43.7371 18.7512C42.009 18.7418 40.6153 17.3325 40.6246 15.6106C40.634 13.8887 42.034 12.5012 43.7496 12.5012H43.7653L59.3809 12.5793ZM29.0407 41.5406C30.2625 40.3187 32.2375 40.3187 33.4594 41.5406C34.6813 42.7625 34.6813 44.7375 33.4594 45.9594L23.1719 56.2469L31.25 56.25C32.9782 56.25 34.375 57.65 34.375 59.3781C34.3719 61.1031 32.975 62.5 31.25 62.5H31.2469L15.7 62.4906C13.9813 62.4906 12.5875 61.1 12.5782 59.3812L12.5 43.7656C12.4907 42.0406 13.8844 40.6344 15.6094 40.625H15.625C17.3438 40.625 18.7407 42.0125 18.75 43.7344L18.7907 51.7906L29.0407 41.5406Z" fill="white"/>
</svg>
