<svg width="75" height="75" viewBox="0 0 75 75" fill="none" xmlns="http://www.w3.org/2000/svg">
<path fill-rule="evenodd" clip-rule="evenodd" d="M48.6848 39.8469C49.5005 38.1875 50.0005 36.3469 50.0005 34.375V18.75C50.0005 11.8562 44.3942 6.25 37.5005 6.25C31.413 6.25 26.3442 10.6281 25.238 16.4L48.6848 39.8469ZM59.3761 34.375C59.3761 32.65 57.9792 31.25 56.2511 31.25C54.5229 31.25 53.1261 32.65 53.1261 34.375C53.1261 37.2156 52.3073 39.8438 50.9761 42.1375L55.5479 46.7094C57.9604 43.1969 59.3761 38.95 59.3761 34.375ZM37.7667 46.8493C37.6795 46.8621 37.5916 46.875 37.5 46.875C30.6063 46.875 25 41.2688 25 34.375V33.8375L37.9875 46.825C37.9132 46.8279 37.8402 46.8386 37.7667 46.8493ZM64.7099 60.2906L14.7099 10.2906C13.488 9.06876 11.513 9.06876 10.2912 10.2906C9.06929 11.5125 9.06929 13.4875 10.2912 14.7094L60.2912 64.7094C60.9005 65.3188 61.7005 65.625 62.5005 65.625C63.3005 65.625 64.1005 65.3188 64.7099 64.7094C65.9318 63.4875 65.9318 61.5125 64.7099 60.2906ZM40.625 62.5H46.875C48.5938 62.5 50 63.9062 50 65.625C50 67.3438 48.5938 68.75 46.875 68.75H28.125C26.4063 68.75 25 67.3438 25 65.625C25 63.9062 26.4063 62.5 28.125 62.5H34.375V56C23.7906 54.475 15.625 45.375 15.625 34.375C15.625 32.65 17.0219 31.25 18.75 31.25C20.4781 31.25 21.875 32.65 21.875 34.375C21.875 42.9906 28.8844 50 37.5 50C38.6313 50 39.7313 49.8656 40.7969 49.6344L45.775 54.6125C44.1469 55.2812 42.4156 55.7375 40.625 55.9969V62.5Z" fill="white"/>
</svg>
