<svg width="75" height="75" viewBox="0 0 75 75" fill="none" xmlns="http://www.w3.org/2000/svg">
<path fill-rule="evenodd" clip-rule="evenodd" d="M50 34.375C50 41.2687 44.3938 46.875 37.5 46.875C30.6062 46.875 25 41.2687 25 34.375V18.75C25 11.8562 30.6062 6.25 37.5 6.25C44.3938 6.25 50 11.8562 50 18.75V34.375ZM56.25 31.25C57.9781 31.25 59.375 32.65 59.375 34.375C59.375 45.375 51.2094 54.475 40.625 56V62.5H47.2031C48.7437 62.5 50 63.7563 50 65.2969V65.9531C50 67.4937 48.7437 68.75 47.2031 68.75H27.7969C26.2563 68.75 25 67.4937 25 65.9531V65.2969C25 63.7563 26.2563 62.5 27.7969 62.5H34.375V56C23.7906 54.475 15.625 45.375 15.625 34.375C15.625 32.65 17.0219 31.25 18.75 31.25C20.4781 31.25 21.875 32.65 21.875 34.375C21.875 42.9906 28.8844 50 37.5 50C46.1156 50 53.125 42.9906 53.125 34.375C53.125 32.65 54.5219 31.25 56.25 31.25Z" fill="white"/>
</svg>
