<svg width="75" height="75" viewBox="0 0 75 75" fill="none" xmlns="http://www.w3.org/2000/svg">
<path fill-rule="evenodd" clip-rule="evenodd" d="M62.5 43.75C62.5 45.4719 61.1 46.875 59.375 46.875H37.7719H37.2281H15.625C13.9 46.875 12.5 45.4719 12.5 43.75V18.75C12.5 17.0281 13.9 15.625 15.625 15.625H59.375C61.1 15.625 62.5 17.0281 62.5 18.75V43.75ZM59.375 9.375H15.625C10.4562 9.375 6.25 13.5812 6.25 18.75V43.75C6.25 48.9188 10.4562 53.125 15.625 53.125H34.375V59.375H21.875C20.1562 59.375 18.75 60.7812 18.75 62.5C18.75 64.2188 20.1562 65.625 21.875 65.625H53.125C54.8438 65.625 56.25 64.2188 56.25 62.5C56.25 60.7812 54.8438 59.375 53.125 59.375H40.625V53.125H59.375C64.5438 53.125 68.75 48.9188 68.75 43.75V18.75C68.75 13.5812 64.5438 9.375 59.375 9.375V9.375Z" fill="white"/>
</svg>
