<svg width="75" height="75" viewBox="0 0 75 75" fill="none" xmlns="http://www.w3.org/2000/svg">
<path fill-rule="evenodd" clip-rule="evenodd" d="M15.625 9.375H59.375C64.5438 9.375 68.75 13.5812 68.75 18.75V34.375H6.25V18.75C6.25 13.5812 10.4562 9.375 15.625 9.375ZM15.625 53.125C10.4562 53.125 6.25 48.9188 6.25 43.75V40.625H68.75V43.75C68.75 48.9188 64.5438 53.125 59.375 53.125H40.625V59.375H53.125C54.8438 59.375 56.25 60.7812 56.25 62.5C56.25 64.2188 54.8438 65.625 53.125 65.625H21.875C20.1562 65.625 18.75 64.2188 18.75 62.5C18.75 60.7812 20.1562 59.375 21.875 59.375H34.375V53.125H15.625Z" fill="white"/>
</svg>
