<svg width="75" height="75" viewBox="0 0 75 75" fill="none" xmlns="http://www.w3.org/2000/svg">
<path fill-rule="evenodd" clip-rule="evenodd" d="M37.5 21.875C40.95 21.875 43.75 19.075 43.75 15.625C43.75 12.175 40.95 9.375 37.5 9.375C34.05 9.375 31.25 12.175 31.25 15.625C31.25 19.075 34.05 21.875 37.5 21.875ZM37.5 31.25C34.05 31.25 31.25 34.05 31.25 37.5C31.25 40.95 34.05 43.75 37.5 43.75C40.95 43.75 43.75 40.95 43.75 37.5C43.75 34.05 40.95 31.25 37.5 31.25ZM31.25 59.375C31.25 55.925 34.05 53.125 37.5 53.125C40.95 53.125 43.75 55.925 43.75 59.375C43.75 62.825 40.95 65.625 37.5 65.625C34.05 65.625 31.25 62.825 31.25 59.375Z" fill="white"/>
</svg>
