<svg width="75" height="75" viewBox="0 0 75 75" fill="none" xmlns="http://www.w3.org/2000/svg">
<path fill-rule="evenodd" clip-rule="evenodd" d="M46.8741 55.7434L41.0741 38.3465L58.4741 20.9434L46.8741 55.7434ZM54.0565 16.5247L36.6565 33.9247L19.2565 28.1247L54.0565 16.5247ZM68.7187 9.21216C68.7031 8.92153 68.65 8.64028 68.5531 8.36841C68.5219 8.27153 68.4875 8.17778 68.4438 8.08403C68.2938 7.74966 68.1031 7.43403 67.8344 7.16528C67.5656 6.89653 67.25 6.70591 66.9125 6.55591C66.8219 6.51216 66.7312 6.47778 66.6344 6.44653C66.3562 6.34966 66.0719 6.29341 65.775 6.27778C65.7063 6.27466 65.6437 6.25903 65.5719 6.25903C65.2594 6.26528 64.9438 6.30903 64.6375 6.40903L8.3875 25.159C7.10938 25.5872 6.25 26.7778 6.25 28.1247C6.25 29.4715 7.10938 30.6653 8.3875 31.0903L35.0281 39.9715L43.9125 66.6153C44.3375 67.8903 45.5281 68.7497 46.875 68.7497C48.2219 68.7497 49.4125 67.8903 49.8375 66.6153L68.5875 10.3653C68.6875 10.0559 68.7344 9.74341 68.7375 9.43091C68.7406 9.35591 68.7219 9.28716 68.7187 9.21216V9.21216Z" fill="white"/>
</svg>
