<svg width="75" height="75" viewBox="0 0 75 75" fill="none" xmlns="http://www.w3.org/2000/svg">
<path fill-rule="evenodd" clip-rule="evenodd" d="M67.9693 49.7147C68.2256 50.449 68.4224 51.2147 68.5474 51.9959C68.6787 52.7709 68.7474 53.5678 68.7474 54.3772C68.7474 62.3022 62.3006 68.749 54.3756 68.749C27.8381 68.749 6.24744 47.1615 6.24744 20.624C6.24744 12.699 12.6974 6.24902 20.6224 6.24902C21.4381 6.24902 22.2381 6.3209 23.0162 6.45527C23.7756 6.57715 24.5443 6.76777 25.2849 7.02715C26.3006 7.38027 27.0662 8.23027 27.3068 9.28027L31.5849 27.9178C31.8193 28.9428 31.5224 30.0209 30.7943 30.7803C30.3668 31.2265 30.3537 31.2334 26.4977 33.2563L26.4818 33.2647C29.5787 40.0209 35.0443 45.4771 41.7318 48.524C43.7602 44.6451 43.7724 44.6334 44.2174 44.2071L44.2193 44.2053C44.9787 43.474 46.0537 43.1865 47.0818 43.4146L65.7193 47.6928C66.7693 47.9334 67.6193 48.6959 67.9693 49.7147ZM53.9613 27.1818C52.6987 28.4381 50.6394 28.4381 49.38 27.1818C48.1237 25.9224 48.1237 23.8631 49.38 22.6006L51.6706 20.3131L49.38 18.0224C48.1237 16.7631 48.1237 14.7037 49.38 13.4443C50.6394 12.1849 52.6987 12.1849 53.9613 13.4443L56.2487 15.7349L58.5394 13.4443C59.7987 12.1849 61.8581 12.1849 63.1175 13.4443C64.3769 14.7037 64.3769 16.7631 63.1175 18.0224L60.8269 20.3131L63.1175 22.6006C64.3769 23.8631 64.3769 25.9224 63.1175 27.1818C61.8581 28.4381 59.7987 28.4381 58.5394 27.1818L56.2487 24.8912L53.9613 27.1818Z" fill="white"/>
</svg>
