<svg width="75" height="75" viewBox="0 0 75 75" fill="none" xmlns="http://www.w3.org/2000/svg">
<path fill-rule="evenodd" clip-rule="evenodd" d="M65.6622 22.3294C63.7059 21.4794 61.4372 21.8482 59.8778 23.2857L53.1247 29.5357V24.9982C53.1247 19.8294 48.9216 15.6232 43.7497 15.6232H15.6247C10.4559 15.6232 6.24969 19.8294 6.24969 24.9982V49.9982C6.24969 55.17 10.4559 59.3732 15.6247 59.3732H43.7497C48.9216 59.3732 53.1247 55.17 53.1247 49.9982V45.4638L59.8778 51.7107C60.8809 52.6388 62.1778 53.1232 63.4997 53.1232C64.2278 53.1232 64.9622 52.9763 65.6622 52.67C67.5653 51.8388 68.7497 50.0607 68.7497 48.0325V26.9669C68.7497 24.9388 67.5653 23.1607 65.6622 22.3294" fill="white"/>
</svg>
