<svg width="75" height="75" viewBox="0 0 75 75" fill="none" xmlns="http://www.w3.org/2000/svg">
<path fill-rule="evenodd" clip-rule="evenodd" d="M46.8755 42.4559L53.1255 48.7059L64.7099 60.2903C65.9318 61.5122 65.9318 63.4872 64.7099 64.7091C64.1005 65.3184 63.3005 65.6247 62.5005 65.6247C61.7005 65.6247 60.9005 65.3184 60.2911 64.7091L51.2067 55.6247L46.6599 51.0778L17.4568 21.8747L11.9568 16.3747L10.2911 14.7091C9.06925 13.4872 9.06925 11.5122 10.2911 10.2903C11.513 9.06843 13.488 9.06843 14.7099 10.2903L20.0443 15.6247L26.2943 21.8747L46.8755 42.4559ZM65.6624 22.3294C63.7062 21.4794 61.4374 21.8481 59.8781 23.2856L53.1249 29.5356V24.9981C53.1249 19.8294 48.9218 15.6231 43.7499 15.6231H24.4624L28.5031 19.6638L49.0843 40.245L55.3343 46.495L61.6187 52.7794C62.2187 53.0044 62.8562 53.1231 63.4999 53.1231C64.2281 53.1231 64.9624 52.9763 65.6624 52.67C67.5656 51.8388 68.7499 50.0606 68.7499 48.0325V26.9669C68.7499 24.9388 67.5656 23.1606 65.6624 22.3294ZM44.4496 53.2866L15.2464 24.0834L9.74957 18.5866L9.29332 18.1303C7.43395 19.8459 6.24957 22.2772 6.24957 24.9991V49.9991C6.24957 55.1709 10.4558 59.3741 15.6246 59.3741H43.7496C45.6777 59.3741 47.4652 58.7897 48.9527 57.7897L44.4496 53.2866Z" fill="white"/>
</svg>
